<?xml version="1.0"?>
<svg width="640" height="480" xmlns="http://www.w3.org/2000/svg" xmlns:svg="http://www.w3.org/2000/svg">
 <!-- Created with SVG-edit - https://github.com/SVG-Edit/svgedit-->
 <g class="layer">
  <title>Layer 1</title>
  <ellipse cx="322.000011" cy="243.00001" fill="#8684f9" id="svg_1" rx="315.500011" ry="233.50001" stroke="#000000"/>
  <path d="m143.804364,190.486951c1.252132,-12.334545 4.18738,-25.078454 10.738821,-35.662782c6.260618,-6.950857 16.365397,-6.74303 24.80457,-9.121012c-11.824423,-2.942979 -22.861984,-8.153845 -33.691862,-13.667276c-17.726446,-7.141231 -35.770092,3.148221 -51.748442,10.366856c-11.863584,5.261365 -23.598867,11.468368 -36.373481,14.073723c-8.379985,-5.403964 -1.381309,-20.735142 4.51148,-27.208422c7.461004,-8.939757 18.505041,-13.558265 26.593611,-21.721687c3.558305,-11.530585 -12.837019,-14.367423 -20.202866,-18.898c-11.422375,-4.800072 -21.127631,-12.662065 -29.811214,-21.440078c20.166155,-1.090682 38.004918,10.531919 56.201193,17.5887c9.842083,3.306717 19.124739,7.957545 28.327223,12.558044c4.219207,-0.019772 18.536368,2.887352 17.109497,-1.577951c-10.731929,-0.441668 -9.656219,-13.327278 -2.43415,-18.435995c10.615011,-7.753006 23.555847,-12.33012 32.392901,-22.599568c3.876914,-2.888574 5.917099,-9.954189 9.193699,-12.183622c14.128463,10.248608 22.394622,26.415238 30.189669,41.74613c12.693183,2.661756 25.512393,4.820741 38.450003,5.472355c12.634253,5.361642 23.421895,14.706021 33.314032,24.195668c7.496015,5.248841 9.493723,19.531334 -0.69573,22.396608c-25.139305,12.567806 -53.209741,16.409731 -80.893146,17.617515c-3.90024,-0.255246 -7.296283,0.14212 -7.322418,4.901386c-2.438367,6.778197 -3.435137,14.654958 -8.025499,20.173889c-5.066049,-1.202547 -0.266671,-15.053406 -5.469547,-8.472446c-10.233989,10.311035 -22.543125,18.043952 -35.158361,24.959232c0,-1.687078 -0.000017,-3.374281 0.000017,-5.061258l0,-0.000008z" fill="#8684f9" id="svg_5" stroke="#000000" stroke-dasharray="null" stroke-linecap="null" stroke-linejoin="null" stroke-width="5" transform="rotate(-12.5093 163.144 119.053)"/>
  <text fill="#000000" font-family="serif" font-size="24" id="svg_8" stroke="#000000" stroke-dasharray="null" stroke-linecap="null" stroke-linejoin="null" text-anchor="middle" transform="matrix(2.30754 0 0 3.19231 -174.149 -485.596)" x="217.832777" xml:space="preserve" y="235.295181">Pedro Luís Cáceres</text>
 </g>
</svg>